<?xml version="1.0" encoding="utf-8"?>
<!-- Generator: Adobe Illustrator 29.3.1, SVG Export Plug-In . SVG Version: 9.03 Build 55982)  -->
<!DOCTYPE svg PUBLIC "-//W3C//DTD SVG 1.1//EN" "http://www.w3.org/Graphics/SVG/1.1/DTD/svg11.dtd" [
	<!ENTITY st0 "fill:#00AEEF;">
	<!ENTITY st1 "fill:#262262;">
	<!ENTITY st2 "fill:#085D7D;">
	<!ENTITY st3 "fill:#1D75BC;">
	<!ENTITY st4 "fill:#00475E;">
]>
<svg version="1.1" id="Layer_1" xmlns="http://www.w3.org/2000/svg" xmlns:xlink="http://www.w3.org/1999/xlink" x="0px" y="0px"
	 viewBox="0 0 93.9729 94.0466" style="enable-background:new 0 0 93.9729 94.0466;" xml:space="preserve">
<g>
	<path d="M24.2332,78.499L24.2332,78.499c1.2701,6.2013,2.3218,10.726,2.6865,11.6529c0.0406,0.1033,0.4103,1.0184,0.8999,1.053
		c0.0001,0,0.0178,0.0013,0.4936,0.0003l0,0l0,0l0,0l0,0l0,0l0,0l0,0c6.6224-6.4235,8.6056-9.926,8.6056-9.926l0.0002-0.0004
		C36.918,81.2785,24.2332,78.499,24.2332,78.499z"/>
</g>
<g>
	<path d="M36.0322,93.0033c-0.2137,0.3773-1.7696-0.0039-4.8813-0.7661c-1.5207-0.3725-3.6489-0.9592-3.6493-0.9594l0,0
		c0,0-0.5998-1.5799-0.5999-1.58l0,0c0.0026-0.0003,2.8912-0.8185,5.0968-0.2916C34.5107,90.0062,36.3699,92.4069,36.0322,93.0033z"
		/>
</g>
<g>
	<path d="M55.509,79.9363L55.509,79.9363c2.1171,5.9655,3.7855,10.3009,4.275,11.1683c0.0545,0.0967,0.5475,0.9517,1.0371,0.9181
		c0.0001,0,0.0178-0.0012,0.4889-0.0681c1.9644-2.3822,3.9122-5.1176,5.6994-8.2409c0.3325-0.581,0.6496-1.1584,0.9522-1.7313
		c-0.1444-0.1483-0.2888-0.2967-0.4332-0.445c-1.6535-0.4259-3.5089-0.815-5.5455-1.1035
		C59.6158,80.0987,57.439,79.961,55.509,79.9363z"/>
</g>
<g>
	<path d="M69.2037,92.6661c-0.1593,0.4032-1.753,0.2413-4.9404-0.0825c-1.5576-0.1583-3.7466-0.4445-3.747-0.4445l0,0
		c0,0-0.8129-1.4815-0.813-1.4816l0,0c0.0025-0.0006,2.7499-1.2112,5.0073-0.9949C67.2816,89.9087,69.4556,92.0287,69.2037,92.6661z
		"/>
</g>
<g>
	<path d="M48.429,90.6174"/>
</g>
<g>
	<path style="&st0;" d="M80.0641,62.1563H19.1439c-0.7786,0-1.4098-0.6312-1.4098-1.4098V18.7834
		c0-0.7786,0.6312-1.4098,1.4098-1.4098h60.9201c0.7786,0,1.4098,0.6312,1.4098,1.4098v41.9631
		C81.4739,61.5251,80.8427,62.1563,80.0641,62.1563z"/>
</g>
<g>
	<g>
		<path style="&st1;" d="M39.6227,42.2948L39.6227,42.2948c-1.8742,0-3.3935-1.5193-3.3935-3.3935v-9.2109
			c0-1.8742,1.5193-3.3935,3.3935-3.3935h0c1.8742,0,3.3935,1.5193,3.3935,3.3935v9.2109
			C43.0162,40.7754,41.4969,42.2948,39.6227,42.2948z"/>
	</g>
	<g>
		<path style="&st1;" d="M62.2737,42.2948L62.2737,42.2948c-1.8742,0-3.3935-1.5193-3.3935-3.3935v-9.2109
			c0-1.8742,1.5193-3.3935,3.3935-3.3935h0c1.8742,0,3.3935,1.5193,3.3935,3.3935v9.2109
			C65.6672,40.7754,64.1479,42.2948,62.2737,42.2948z"/>
	</g>
</g>
<g>
	<rect x="9.797" y="59.6998" style="&st2;" width="81.8784" height="24.0424"/>
</g>
<g>
	<path d="M49.191,51.1237c-0.0615,0-0.123,0-0.1846,0c-2.3188-0.0195-4.6274-0.3838-6.8618-1.084l0.3506-1.1191
		c2.124,0.665,4.3179,1.0117,6.521,1.0293c3.5269,0.043,7.0757-0.8027,10.2998-2.4043l0.5215,1.0508
		C56.506,50.2517,52.8282,51.1237,49.191,51.1237z"/>
</g>
<g>
	<path style="&st3;" d="M55.1136,41.233l3.9338,2.4985c0.2963,0.1882,0.2555,0.6327-0.0702,0.7638l-4.1565,1.6724
		c-1.084,0.4361-2.2627-0.3713-2.2476-1.5397l0.0264-2.0345C52.6161,41.3121,54.032,40.546,55.1136,41.233z"/>
</g>
<g>
	<path style="&st1;" d="M34.6368,25.3317l-0.7656-0.8887c0.8701-0.749,2.3252-1.7148,4.3198-2.0654
		c3.2422-0.5684,5.8022,0.8564,6.751,1.4961l-0.6553,0.9727c-0.832-0.5605-3.0703-1.8145-5.8926-1.3125
		C36.6622,23.8376,35.3946,24.6794,34.6368,25.3317z"/>
</g>
<g>
	<path style="&st1;" d="M57.025,25.3317l-0.7656-0.8887c0.8691-0.749,2.3237-1.7148,4.3198-2.0654
		c3.2412-0.5684,5.8018,0.8564,6.751,1.4961l-0.6553,0.9727c-0.832-0.5605-3.0693-1.8145-5.8926-1.3125
		C59.0489,23.8376,57.7823,24.6794,57.025,25.3317z"/>
</g>
<g>
	<polygon points="92.6324,84.7907 7.2565,84.7907 7.3873,33.4704 9.3863,33.4763 9.2613,82.7907 90.6334,82.7907 90.6334,32.7517 
		92.6324,32.7517 	"/>
</g>
<g>
	
		<rect x="6.8506" y="29.8238" transform="matrix(0.8163 -0.5776 0.5776 0.8163 -15.4409 13.0907)" width="12.0242" height="2.0002"/>
</g>
<g>
	<path style="&st4;" d="M67.5654,17.3736C61.6011,13.4248,55.6369,9.476,49.6726,5.5272
		c-5.7916,3.9405-11.5833,7.881-17.3749,11.8215"/>
	<polygon points="67.0133,18.2077 49.6803,6.7311 32.86,18.1755 31.735,16.5212 49.6647,4.3229 68.1178,16.5397 	"/>
</g>
<g>
	<rect x="85.965" y="23.8479" transform="matrix(0.5577 -0.8301 0.8301 0.5577 13.4848 85.499)" width="2" height="12.4979"/>
</g>
<g>
	<rect x="37.024" y="57.8708" width="25.1914" height="2"/>
</g>
<g>
	<path d="M18.7491,43.527l-2.0303-0.002l0.0117-23.8379c0-1.8135,1.3188-3.29,2.9395-3.29h60.5942
		c1.6206,0,2.939,1.4766,2.939,3.291l-0.3496,22.9014l-2.0293-0.0312l0.3491-22.8857c-0.0005-0.668-0.4165-1.2461-0.9092-1.2461
		H19.67c-0.4927,0-0.9092,0.5781-0.9092,1.2617L18.7491,43.527z"/>
</g>
<g>
	<path style="&st4;" d="M16.7466,29.2974c-2.2665,1.6157-4.533,3.2313-6.7994,4.847c2.2648,1.9483,4.5295,3.8966,6.7943,5.8449
		C16.7431,36.4253,16.7449,32.8614,16.7466,29.2974z"/>
</g>
<g>
	<path style="&st2;" d="M90.8057,83.7817L62.1422,58.1629c9.485-8.4675,18.97-16.9351,28.455-25.4026"/>
	<polygon points="90.1344,84.5329 60.6305,58.1628 89.9264,32.0095 91.2682,33.5114 63.6539,58.1628 91.4772,83.0309 	"/>
</g>
<g>
	<path style="&st2;" d="M9.1389,83.288l27.8112-24.5912c-7.8662-6.9472-15.7324-13.8945-23.5986-20.8418
		c-1.3368-1.1806-2.6736-2.3612-4.0104-3.5419"/>
	<polygon points="9.7828,84.0163 8.4947,82.5593 35.4825,58.697 8.6979,35.0417 9.985,33.5847 38.4181,58.697 	"/>
</g>
<g>
	<path style="&st4;" d="M83.0857,28.7209c1.9993,1.3413,3.9986,2.6826,5.9979,4.0239c-2.0562,1.8601-4.1125,3.7202-6.1687,5.5803
		C82.9718,35.1237,83.0287,31.9223,83.0857,28.7209z"/>
</g>
</svg>
