<?xml version="1.0" encoding="UTF-8"?>
<svg id="Layer_1" xmlns="http://www.w3.org/2000/svg" version="1.1" viewBox="0 0 93.9729 94.0466">
  <!-- Generator: Adobe Illustrator 29.4.0, SVG Export Plug-In . SVG Version: 2.1.0 Build 152)  -->
  <path d="M-545.4322,78.1221h0c1.0695,6.239,1.9748,10.7953,2.3094,11.7334.0373.1045.3773,1.0311.8655,1.0814,0,0,.0178.0018.4933.0162h0c6.8261-6.2066,8.9211-9.6434,8.9211-9.6434l.0003-.0004c-.001-.0002-12.5896-3.1872-12.5896-3.1872Z" style="fill: #231f20;"/>
  <rect x="-555.7712" y="14.5224" width="63.7397" height="44.7827" rx="-214.1459" ry="-214.1459" style="fill: #00aeef;"/>
  <g>
    <rect x="-537.2762" y="23.4457" width="6.787" height="15.9979" rx="-261.8511" ry="-261.8511" style="fill: #262262;"/>
    <rect x="-514.6252" y="23.4457" width="6.787" height="15.9979" rx="-250.5256" ry="-250.5256" style="fill: #262262;"/>
  </g>
  <rect x="-563.7083" y="56.8486" width="81.8784" height="24.0424" style="fill: #085d7d;"/>
  <path d="M-531.1856,46.629c1.6744.5245,3.9605,1.0344,6.6914,1.0565,4.8104.0389,8.533-1.4559,10.5654-2.4653" style="fill: none; stroke: #231f20; stroke-miterlimit: 10; stroke-width: 1.1732px;"/>
  <path d="M-518.3917,38.3818l3.9338,2.4985c.2963.1882.2555.6327-.0702.7638l-4.1565,1.6724c-1.084.4361-2.2627-.3713-2.2476-1.5397l.0264-2.0345c.0166-1.2813,1.4325-2.0474,2.5142-1.3604Z" style="fill: #1d75bc;"/>
  <path d="M-539.2514,22.0359c.6375-.5481,2.0153-1.5755,4.0388-1.9316,3.2529-.5725,5.7466,1.0167,6.3216,1.4048" style="fill: none; stroke: #262262; stroke-miterlimit: 10; stroke-width: 1.1732px;"/>
  <path d="M-516.8633,22.0359c.6375-.5481,2.0153-1.5755,4.0388-1.9316,3.2529-.5725,5.7466,1.0167,6.3216,1.4048" style="fill: none; stroke: #262262; stroke-miterlimit: 10; stroke-width: 1.1732px;"/>
  <path d="M-534.107,92.9993c-.2257.3702-1.7685-.0609-4.854-.9231-1.5079-.4214-3.616-1.0764-3.6165-1.0765h0s-.5486-1.5984-.5486-1.5985h0c.0026-.0002,2.9161-.7249,5.1036-.1271,2.4915.6808,4.2724,3.1402,3.9156,3.7253Z" style="fill: #231f20;"/>
  <path d="M-481.8722,29.9v51.0396h-83.3741c.0425-16.7724.0851-33.5447.1277-50.3171" style="fill: none; stroke: #231f20; stroke-miterlimit: 10; stroke-width: 1.9994px;"/>
  <path d="M-555.7341,24.5006c-3.2724,2.3148-6.5448,4.6295-9.8173,6.9442" style="fill: none; stroke: #231f20; stroke-miterlimit: 10; stroke-width: 2px;"/>
  <path d="M-505.9399,14.5224c-5.9643-3.9488-11.9286-7.8976-17.8929-11.8463l-17.3749,11.8215" style="fill: #00475e; stroke: #231f20; stroke-miterlimit: 10; stroke-width: 2px;"/>
  <path d="M-481.3536,30.7309c-3.458-2.3234-6.916-4.6469-10.374-6.9703" style="fill: none; stroke: #231f20; stroke-miterlimit: 10; stroke-width: 2px;"/>
  <line x1="-536.4815" y1="56.02" x2="-511.2897" y2="56.02" style="fill: none; stroke: #231f20; stroke-miterlimit: 10; stroke-width: 2px;"/>
  <path d="M-555.7714,40.6753c.004-7.946.008-15.892.012-23.838,0-1.2572.8615-2.2764,1.9241-2.2764h60.594c1.0627,0,1.9241,1.0192,1.9241,2.2764-.1163,7.6285-.2326,15.2571-.349,22.8856" style="fill: none; stroke: #231f20; stroke-miterlimit: 10; stroke-width: 2.03px;"/>
  <path d="M-556.7588,26.4462c-2.2665,1.6157-4.533,3.2313-6.7994,4.847,2.2648,1.9483,4.5295,3.8966,6.7943,5.8449.0017-3.564.0034-7.1279.0052-10.6919Z" style="fill: #00475e;"/>
  <path d="M-482.6997,80.9305l-28.6635-25.6188c9.485-8.4675,18.97-16.9351,28.455-25.4026" style="fill: #085d7d; stroke: #231f20; stroke-miterlimit: 10; stroke-width: 2.0144px;"/>
  <path d="M-564.3664,80.4368l27.8112-24.5912c-7.8662-6.9472-15.7324-13.8945-23.5986-20.8418-1.3368-1.1806-2.6736-2.3612-4.0104-3.5419" style="fill: #085d7d; stroke: #231f20; stroke-miterlimit: 10; stroke-width: 1.9441px;"/>
  <path d="M-490.4197,25.8697c1.9993,1.3413,3.9986,2.6826,5.9979,4.0239-2.0562,1.8601-4.1125,3.7202-6.1687,5.5803l.1708-9.6042Z" style="fill: #00475e;"/>
  <path d="M-514.8643,80.2903h0c2.5737,5.7832,4.5736,9.9759,5.129,10.8028.0619.0921.6197.9064,1.1053.8348,0,0,.0177-.0026.4821-.1058h0c5.0864-7.6971,6.2702-11.5441,6.2702-11.5441v-.0005c-.0009,0-12.9866.0128-12.9866.0128Z" style="fill: #231f20;"/>
  <path d="M-500.2228,91.9185c-.1276.4144-1.729.3767-4.9319.3013-1.5652-.0369-3.7698-.1523-3.7702-.1523h0s-.9255-1.4139-.9256-1.4141h0c.0024-.0008,2.6476-1.421,4.9149-1.3806,2.5824.046,4.9144,1.9908,4.7127,2.6458Z" style="fill: #231f20;"/>
  <rect x="-441.1541" y="14.1251" width="63.7397" height="44.7827" rx="-156.8373" ry="-156.8373" style="fill: #00aeef;"/>
  <g>
    <rect x="-422.659" y="23.0484" width="6.787" height="15.9979" rx="-204.5425" ry="-204.5425" style="fill: #262262;"/>
    <rect x="-400.008" y="23.0484" width="6.787" height="15.9979" rx="-193.217" ry="-193.217" style="fill: #262262;"/>
  </g>
  <rect x="-449.0912" y="56.4514" width="81.8784" height="24.0424" style="fill: #085d7d;"/>
  <path d="M-416.5685,46.2317c1.6744.5245,3.9605,1.0344,6.6914,1.0565,4.8104.0389,8.533-1.4559,10.5654-2.4653" style="fill: none; stroke: #231f20; stroke-miterlimit: 10; stroke-width: 1.1732px;"/>
  <path d="M-403.7746,37.9845l3.9338,2.4985c.2963.1882.2555.6327-.0702.7638l-4.1565,1.6724c-1.084.4361-2.2627-.3713-2.2476-1.5397l.0264-2.0345c.0166-1.2813,1.4325-2.0474,2.5142-1.3604Z" style="fill: #1d75bc;"/>
  <path d="M-424.6342,21.6386c.6375-.5481,2.0153-1.5755,4.0388-1.9316,3.2529-.5725,5.7466,1.0167,6.3216,1.4048" style="fill: none; stroke: #262262; stroke-miterlimit: 10; stroke-width: 1.1732px;"/>
  <path d="M-402.2462,21.6386c.6375-.5481,2.0153-1.5755,4.0388-1.9316,3.2529-.5725,5.7466,1.0167,6.3216,1.4048" style="fill: none; stroke: #262262; stroke-miterlimit: 10; stroke-width: 1.1732px;"/>
  <path d="M-367.255,29.5027v51.0396h-83.3741c.0425-16.7724.0851-33.5447.1277-50.3171" style="fill: none; stroke: #231f20; stroke-miterlimit: 10; stroke-width: 1.9994px;"/>
  <path d="M-441.117,24.1033c-3.2724,2.3148-6.5448,4.6295-9.8173,6.9442" style="fill: none; stroke: #231f20; stroke-miterlimit: 10; stroke-width: 2px;"/>
  <path d="M-391.3228,14.1251c-5.9643-3.9488-11.9286-7.8976-17.8929-11.8463l-17.3749,11.8215" style="fill: #00475e; stroke: #231f20; stroke-miterlimit: 10; stroke-width: 2px;"/>
  <path d="M-366.7364,30.3336c-3.458-2.3234-6.916-4.6469-10.374-6.9703" style="fill: none; stroke: #231f20; stroke-miterlimit: 10; stroke-width: 2px;"/>
  <line x1="-421.8644" y1="55.6227" x2="-396.6725" y2="55.6227" style="fill: none; stroke: #231f20; stroke-miterlimit: 10; stroke-width: 2px;"/>
  <path d="M-441.1543,40.2781c.004-7.946.008-15.892.012-23.838,0-1.2572.8615-2.2764,1.9241-2.2764h60.594c1.0627,0,1.9241,1.0192,1.9241,2.2764-.1163,7.6285-.2326,15.2571-.349,22.8856" style="fill: none; stroke: #231f20; stroke-miterlimit: 10; stroke-width: 2.03px;"/>
  <path d="M-442.1417,26.049c-2.2665,1.6157-4.533,3.2313-6.7994,4.847,2.2648,1.9483,4.5295,3.8966,6.7943,5.8449.0017-3.564.0034-7.1279.0052-10.6919Z" style="fill: #00475e;"/>
  <path d="M-368.0826,80.5333l-28.6635-25.6188c9.485-8.4675,18.97-16.9351,28.455-25.4026" style="fill: #085d7d; stroke: #231f20; stroke-miterlimit: 10; stroke-width: 2.0144px;"/>
  <path d="M-449.7493,80.0396l27.8112-24.5912c-7.8662-6.9472-15.7324-13.8945-23.5986-20.8418-1.3368-1.1806-2.6736-2.3612-4.0104-3.5419" style="fill: #085d7d; stroke: #231f20; stroke-miterlimit: 10; stroke-width: 1.9441px;"/>
  <path d="M-375.8025,25.4725c1.9993,1.3413,3.9986,2.6826,5.9979,4.0239-2.0562,1.8601-4.1125,3.7202-6.1687,5.5803l.1708-9.6042Z" style="fill: #00475e;"/>
  <path d="M-399.8942,79.6653h0c.8537,2.6405,2.4027,5.5544,5.2076,8.2463.2688.2579.5416.5066.8174.7464h0l.7751-.1807c5.0284-5.811,6.1835-8.7254,6.1835-8.7254v-.0004c-.0009,0-12.9836-.0861-12.9836-.0861Z" style="fill: #231f20;"/>
  <path d="M-385.1637,88.5086c-.1276.4144-1.729.3767-4.9319.3013-1.5652-.0369-3.7698-.1523-3.7702-.1523h0s-.9255-1.4139-.9256-1.4141h0c.0024-.0008,2.6476-1.421,4.9149-1.3806,2.5824.046,4.9144,1.9908,4.7127,2.6458Z" style="fill: #231f20;"/>
  <path d="M-399.3808,94.0466" style="fill: #231f20;"/>
  <path d="M-430.4134,79.6653h0c.8537,2.6405,2.4027,5.5544,5.2076,8.2463.2688.2579.5416.5066.8174.7464h0l.7751-.1807c5.0284-5.811,6.1835-8.7254,6.1835-8.7254v-.0004c-.0009,0-12.9836-.0861-12.9836-.0861Z" style="fill: #231f20;"/>
  <path d="M-415.6863,88.5113c-.1276.4144-1.729.3767-4.9319.3013-1.5652-.0369-3.7698-.1523-3.7702-.1523h0s-.9255-1.4139-.9256-1.4141h0c.0024-.0008,2.6476-1.421,4.9149-1.3806,2.5824.046,4.9144,1.9908,4.7127,2.6458Z" style="fill: #231f20;"/>
  <rect x="-328.0341" y="11.8384" width="63.7397" height="44.7827" rx="-100.2773" ry="-100.2773" style="fill: #00aeef;"/>
  <g>
    <rect x="-309.539" y="20.7617" width="6.787" height="15.9979" rx="-147.9825" ry="-147.9825" style="fill: #262262;"/>
    <rect x="-286.888" y="20.7617" width="6.787" height="15.9979" rx="-136.657" ry="-136.657" style="fill: #262262;"/>
  </g>
  <rect x="-335.9712" y="54.1646" width="81.8784" height="24.0424" style="fill: #085d7d;"/>
  <path d="M-303.4484,43.945c1.6744.5245,3.9605,1.0344,6.6914,1.0565,4.8104.0389,8.533-1.4559,10.5654-2.4653" style="fill: none; stroke: #231f20; stroke-miterlimit: 10; stroke-width: 1.1732px;"/>
  <path d="M-290.6546,35.6977l3.9338,2.4985c.2963.1882.2555.6327-.0702.7638l-4.1565,1.6724c-1.084.4361-2.2627-.3713-2.2476-1.5397l.0264-2.0345c.0166-1.2813,1.4325-2.0474,2.5142-1.3604Z" style="fill: #1d75bc;"/>
  <path d="M-311.5142,19.3519c.6375-.5481,2.0153-1.5755,4.0388-1.9316,3.2529-.5725,5.7466,1.0167,6.3216,1.4048" style="fill: none; stroke: #262262; stroke-miterlimit: 10; stroke-width: 1.1732px;"/>
  <path d="M-289.1262,19.3519c.6375-.5481,2.0153-1.5755,4.0388-1.9316,3.2529-.5725,5.7466,1.0167,6.3216,1.4048" style="fill: none; stroke: #262262; stroke-miterlimit: 10; stroke-width: 1.1732px;"/>
  <path d="M-254.135,27.216v51.0396h-83.3741c.0425-16.7724.0851-33.5447.1277-50.3171" style="fill: none; stroke: #231f20; stroke-miterlimit: 10; stroke-width: 1.9994px;"/>
  <path d="M-327.9969,21.8166c-3.2724,2.3148-6.5448,4.6295-9.8173,6.9442" style="fill: none; stroke: #231f20; stroke-miterlimit: 10; stroke-width: 2px;"/>
  <path d="M-278.2028,11.8384c-5.9643-3.9488-11.9286-7.8976-17.8929-11.8463l-17.3749,11.8215" style="fill: #00475e; stroke: #231f20; stroke-miterlimit: 10; stroke-width: 2px;"/>
  <path d="M-253.6164,28.0469c-3.458-2.3234-6.916-4.6469-10.374-6.9703" style="fill: none; stroke: #231f20; stroke-miterlimit: 10; stroke-width: 2px;"/>
  <line x1="-308.7444" y1="53.336" x2="-283.5525" y2="53.336" style="fill: none; stroke: #231f20; stroke-miterlimit: 10; stroke-width: 2px;"/>
  <path d="M-328.0342,37.9913c.004-7.946.008-15.892.012-23.838,0-1.2572.8615-2.2764,1.9241-2.2764h60.594c1.0627,0,1.9241,1.0192,1.9241,2.2764-.1163,7.6285-.2326,15.2571-.349,22.8856" style="fill: none; stroke: #231f20; stroke-miterlimit: 10; stroke-width: 2.03px;"/>
  <path d="M-329.0216,23.7622c-2.2665,1.6157-4.533,3.2313-6.7994,4.847,2.2648,1.9483,4.5295,3.8966,6.7943,5.8449.0017-3.564.0034-7.1279.0052-10.6919Z" style="fill: #00475e;"/>
  <path d="M-254.9625,78.2465l-28.6635-25.6188c9.485-8.4675,18.97-16.9351,28.455-25.4026" style="fill: #085d7d; stroke: #231f20; stroke-miterlimit: 10; stroke-width: 2.0144px;"/>
  <path d="M-336.6292,77.7528l27.8112-24.5912c-7.8662-6.9472-15.7324-13.8945-23.5986-20.8418-1.3368-1.1806-2.6736-2.3612-4.0104-3.5419" style="fill: #085d7d; stroke: #231f20; stroke-miterlimit: 10; stroke-width: 1.9441px;"/>
  <path d="M-286.6836,79.0485h0c2.5737,5.7832,4.5736,9.9759,5.129,10.8028.0619.0921.6197.9064,1.1053.8348,0,0,.0177-.0026.4821-.1058h0c5.0864-7.6971,6.2702-11.5441,6.2702-11.5441v-.0005c-.0009,0-12.9866.0128-12.9866.0128Z" style="fill: #231f20;"/>
  <path d="M-272.0421,90.6768c-.1276.4144-1.729.3767-4.9319.3013-1.5652-.0369-3.7698-.1523-3.7702-.1523h0s-.9255-1.4139-.9256-1.4141h0c.0024-.0008,2.6476-1.421,4.9149-1.3806,2.5824.046,4.9144,1.9908,4.7127,2.6458Z" style="fill: #231f20;"/>
  <path d="M-317.1533,79.0485h0c2.5737,5.7832,4.5736,9.9759,5.129,10.8028.0619.0921.6197.9064,1.1053.8348,0,0,.0177-.0026.4821-.1058h0c5.0864-7.6971,6.2702-11.5441,6.2702-11.5441v-.0005c-.0009,0-12.9866.0128-12.9866.0128Z" style="fill: #231f20;"/>
  <path d="M-302.5118,90.6768c-.1276.4144-1.729.3767-4.9319.3013-1.5652-.0369-3.7698-.1523-3.7702-.1523h0s-.9255-1.4139-.9256-1.4141h0c.0024-.0008,2.6476-1.421,4.9149-1.3806,2.5824.046,4.9144,1.9908,4.7127,2.6458Z" style="fill: #231f20;"/>
  <rect x="-213.2084" y="13.5879" width="63.7397" height="44.7827" rx="-42.8644" ry="-42.8644" style="fill: #00aeef;"/>
  <g>
    <rect x="-194.7133" y="22.5112" width="6.787" height="15.9979" rx="-90.5697" ry="-90.5697" style="fill: #262262;"/>
    <rect x="-172.0623" y="22.5112" width="6.787" height="15.9979" rx="-79.2442" ry="-79.2442" style="fill: #262262;"/>
  </g>
  <rect x="-221.1454" y="55.9142" width="81.8784" height="24.0424" style="fill: #085d7d;"/>
  <path d="M-188.6227,45.6945c1.6744.5245,3.9605,1.0344,6.6914,1.0565,4.8104.0389,8.533-1.4559,10.5654-2.4653" style="fill: none; stroke: #231f20; stroke-miterlimit: 10; stroke-width: 1.1732px;"/>
  <path d="M-175.8289,37.4473l3.9338,2.4985c.2963.1882.2555.6327-.0702.7638l-4.1565,1.6724c-1.084.4361-2.2627-.3713-2.2476-1.5397l.0264-2.0345c.0166-1.2813,1.4325-2.0474,2.5142-1.3604Z" style="fill: #1d75bc;"/>
  <path d="M-196.6885,21.1014c.6375-.5481,2.0153-1.5755,4.0388-1.9316,3.2529-.5725,5.7466,1.0167,6.3216,1.4048" style="fill: none; stroke: #262262; stroke-miterlimit: 10; stroke-width: 1.1732px;"/>
  <path d="M-174.3005,21.1014c.6375-.5481,2.0153-1.5755,4.0388-1.9316,3.2529-.5725,5.7466,1.0167,6.3216,1.4048" style="fill: none; stroke: #262262; stroke-miterlimit: 10; stroke-width: 1.1732px;"/>
  <path d="M-139.3093,28.9655v51.0396h-83.3741c.0425-16.7724.0851-33.5447.1277-50.3171" style="fill: none; stroke: #231f20; stroke-miterlimit: 10; stroke-width: 1.9994px;"/>
  <path d="M-213.1712,23.5661c-3.2724,2.3148-6.5448,4.6295-9.8173,6.9442" style="fill: none; stroke: #231f20; stroke-miterlimit: 10; stroke-width: 2px;"/>
  <path d="M-163.3771,13.5879c-5.9643-3.9488-11.9286-7.8976-17.8929-11.8463l-17.3749,11.8215" style="fill: #00475e; stroke: #231f20; stroke-miterlimit: 10; stroke-width: 2px;"/>
  <path d="M-138.7907,29.7964c-3.458-2.3234-6.916-4.6469-10.374-6.9703" style="fill: none; stroke: #231f20; stroke-miterlimit: 10; stroke-width: 2px;"/>
  <line x1="-193.9187" y1="55.0855" x2="-168.7268" y2="55.0855" style="fill: none; stroke: #231f20; stroke-miterlimit: 10; stroke-width: 2px;"/>
  <path d="M-213.2085,39.7409c.004-7.946.008-15.892.012-23.838,0-1.2572.8615-2.2764,1.9241-2.2764h60.594c1.0627,0,1.9241,1.0192,1.9241,2.2764-.1163,7.6285-.2326,15.2571-.349,22.8856" style="fill: none; stroke: #231f20; stroke-miterlimit: 10; stroke-width: 2.03px;"/>
  <path d="M-214.1959,25.5117c-2.2665,1.6157-4.533,3.2313-6.7994,4.847,2.2648,1.9483,4.5295,3.8966,6.7943,5.8449.0017-3.564.0034-7.1279.0052-10.6919Z" style="fill: #00475e;"/>
  <path d="M-140.1368,79.996l-28.6635-25.6188c9.485-8.4675,18.97-16.9351,28.455-25.4026" style="fill: #085d7d; stroke: #231f20; stroke-miterlimit: 10; stroke-width: 2.0144px;"/>
  <path d="M-221.8035,79.5024l27.8112-24.5912c-7.8662-6.9472-15.7324-13.8945-23.5986-20.8418-1.3368-1.1806-2.6736-2.3612-4.0104-3.5419" style="fill: #085d7d; stroke: #231f20; stroke-miterlimit: 10; stroke-width: 1.9441px;"/>
  <path d="M-147.8568,24.9353c1.9993,1.3413,3.9986,2.6826,5.9979,4.0239-2.0562,1.8601-4.1125,3.7202-6.1687,5.5803l.1708-9.6042Z" style="fill: #00475e;"/>
  <path d="M-171.4351,93.5094" style="fill: #231f20;"/>
  <path d="M-202.9417,79.7295h0c.8832,1.6801,2.4646,3.541,5.299,5.2757.2716.1662.5471.3266.8255.4814h0l.7727-.1056c4.9611-3.6194,6.0828-5.4501,6.0829-5.4501v-.0002c-.0009,0-12.9801-.2011-12.9801-.2011Z" style="fill: #231f20;"/>
  <path d="M-188.1245,85.3264c-.1276.4144-1.729.3767-4.9319.3013-1.5652-.0369-3.7698-.1523-3.7702-.1523h0s-.9255-1.4139-.9256-1.4141h0c.0024-.0008,2.6476-1.421,4.9149-1.3806,2.5824.046,4.9144,1.9908,4.7127,2.6458Z" style="fill: #231f20;"/>
  <path d="M-172.69,79.7295h0c.8832,1.6801,2.4646,3.541,5.299,5.2757.2716.1662.5471.3266.8255.4814h0l.7727-.1056c4.9611-3.6194,6.0828-5.4501,6.0829-5.4501v-.0002c-.0009,0-12.9801-.2011-12.9801-.2011Z" style="fill: #231f20;"/>
  <path d="M-157.8728,85.3569c-.1276.4144-1.729.3767-4.9319.3013-1.5652-.0369-3.7698-.1523-3.7702-.1523h0s-.9255-1.4139-.9256-1.4141h0c.0024-.0008,2.6476-1.421,4.9149-1.3806,2.5824.046,4.9144,1.9908,4.7127,2.6458Z" style="fill: #231f20;"/>
  <rect x="6.8003" y="35.6574" width="81.8784" height="48.3106" style="fill: #085d7d;"/>
  <path d="M88.7141,33.1115v50.9051H5.2624c.0426-16.7282.0852-33.4563.1278-50.1845" style="fill: none; stroke: #231f20; stroke-miterlimit: 10; stroke-width: 1.9977px;"/>
  <path d="M88.2944,33.9948c-13.9833,12.1161-27.9667,24.2322-41.9501,36.3483-13.3813-11.9103-26.7625-23.8206-40.1438-35.7309" style="fill: #00475e; stroke: #231f20; stroke-miterlimit: 10; stroke-width: 2.0024px;"/>
  <path d="M5.6441,34.9154l27.8113,24.5912c-7.8662,6.9472-15.7324,13.8945-23.5986,20.8418-1.3368,1.1806-2.6736,2.3612-4.0104,3.5419" style="fill: #085d7d; stroke: #231f20; stroke-miterlimit: 10; stroke-width: 1.9441px;"/>
  <polyline points="87.8277 34.1058 14.1565 34.1058 4.4897 34.1058 4.3974 34.1058 4.3896 34.1058" style="fill: #085d7d; stroke: #231f20; stroke-miterlimit: 10; stroke-width: 1.9441px;"/>
  <path d="M87.2398,35.0935l-27.8113,24.5912c7.8662,6.9472,15.7324,13.8945,23.5986,20.8418,1.3368,1.1806,2.6736,2.3612,4.0104,3.5419" style="fill: #085d7d; stroke: #231f20; stroke-miterlimit: 10; stroke-width: 1.9441px;"/>
</svg>