<?xml version="1.0" encoding="UTF-8"?>
<svg id="Layer_1" xmlns="http://www.w3.org/2000/svg" version="1.1" viewBox="0 0 677.4803 365.9102">
  <!-- Generator: Adobe Illustrator 29.3.1, SVG Export Plug-In . SVG Version: 2.1.0 Build 151)  -->
  <path d="M677.4803,242.8549c-132.4184,0-264.8369,0-397.2553,0-93.3398,0-186.6796,0-280.0194,0V-.4338h677.2747v243.2887Z" style="fill: #f7e9f3;"/>
  <path d="M64.4834,34.6458c3.6273-11.5791,21.0097-20.3842,31.0333-15.9141,10.8896,4.8564,6.1286,22.2747,16.6737,27.3961,13.1041,6.3643,28.9404-16.4136,40.9734-10.8013,10.8915,5.0798,15.1646,31.7852,4.2061,45.2898-5.9687,7.3555-12.3316,5.712-61.314,11.8673-16.6812,2.0962-25.7756,3.5224-41.0609,3.9505-24.3507.682-36.5991.8878-40.177-5.734-4.9945-9.2435,6.7624-29.9647,21.9333-34.1367,13.3549-3.6725,25.1756,6.6288,29.6453,1.6365,4.0083-4.4768-5.1849-13.1099-1.9131-23.5541Z" style="fill: #e5becc; opacity: .59;"/>
  <path d="M144.0124,41.6881c3.492-11.5791,20.2255-20.3842,29.8751-15.9141,10.4832,4.8564,5.8999,22.2747,16.0514,27.3961,12.615,6.3643,27.8603-16.4136,39.4442-10.8013,10.485,5.0798,14.5986,31.7852,4.0491,45.2898-5.746,7.3555-11.8714,5.712-59.0256,11.8673-16.0586,2.0962-24.8136,3.5224-39.5284,3.9505-23.4419.682-35.2331.8878-38.6775-5.734-4.8081-9.2435,6.51-29.9647,21.1147-34.1367,12.8564-3.6725,24.2359,6.6288,28.5389,1.6365,3.8587-4.4768-4.9914-13.1099-1.8417-23.5541Z" style="fill: #e5becc;"/>
  <path d="M316.8232,105.9707c1.0714-3.42,6.2054-6.0207,9.1659-4.7004,3.2163,1.4344,1.8101,6.579,4.9247,8.0917,3.8704,1.8797,8.5478-4.8479,12.1018-3.1903,3.2169,1.5004,4.479,9.388,1.2423,13.3767-1.7629,2.1725-3.6422,1.6871-18.1096,3.5051-4.9269.6191-7.613,1.0404-12.1277,1.1668-7.1922.2014-10.8098.2622-11.8666-1.6936-1.4752-2.7301,1.9973-8.8503,6.4782-10.0826,3.9445-1.0847,7.4358,1.9579,8.756.4833,1.1839-1.3223-1.5314-3.8721-.5651-6.9569Z" style="fill: #e7d5d9;"/>
  <path d="M230.1897,185.5351c1.0314-3.42,5.9738-6.0207,8.8239-4.7004,3.0963,1.4344,1.7426,6.579,4.7409,8.0917,3.726,1.8797,8.2288-4.8479,11.6502-3.1903,3.0968,1.5004,4.3118,9.388,1.1959,13.3767-1.6971,2.1725-3.5063,1.6871-17.4337,3.5051-4.743.6191-7.3289,1.0404-11.6751,1.1668-6.9238.2014-10.4064.2622-11.4237-1.6936-1.4201-2.7301,1.9228-8.8503,6.2364-10.0826,3.7973-1.0847,7.1583,1.9579,8.4292.4833,1.1397-1.3223-1.4743-3.8721-.544-6.9569Z" style="fill: #e7d5d9;"/>
  <path d="M677.4803,365.4764H.2056v-148.4264c177.5528,38.9472,291.6068,29.1934,364.8593,11.0193,12.3617-3.067,31.595-8.3669,60.6244-13.4489,35.5301-6.2201,103.0307-15.0708,187.5545-6.8348,18.4186,1.7947,40.0777,4.6388,64.2365,9.2645v148.4264Z" style="fill: #b9c9e7;"/>
  <path d="M.0364,188.0557c23.6587-10.6301,44.7372-17.3159,62.2595-21.7523,15.4526-3.9124,28.9751-6.2869,42.3291-7.4188,133.1152-11.2836,184.4907,31.9695,323.2019,32.6643.0001,0,74.948,4.0764,164.3878,12.2065,5.2114.4737,14.4733,1.3302,26.5306,3.1397,2.6014.3904,8.9666,1.4819,21.6968,3.6647,12.7601,2.188,16.507,2.8741,21.0844,3.8146,6.7705,1.3912,12.2969,2.7101,15.9902,3.6298-2.9-.472-7.335-1.1528-12.7497-1.8119-30.0637-3.6594-56.962-2.5894-118.494,6.2462-48.2158,6.9235-60.7501,10.3187-92.1623,12.3893-65.0435,4.2875-68.0532-2.7973-126.0483,2.9854-13.9708,1.393-17.2425,1.2897-64.7118,7.4631-32.6718,4.249-40.9657,6.1988-59.103,6.4162-7.059.0847-16.3738.3343-28.7586.107C121.6647,250.8118,5.4903,229.5781.0579,228.6" style="fill: #f3d6e7;"/>
</svg>