<?xml version="1.0" encoding="UTF-8"?>
<svg id="Layer_1" xmlns="http://www.w3.org/2000/svg" version="1.1" viewBox="0 0 93.9729 94.0466">
  <!-- Generator: Adobe Illustrator 29.4.0, SVG Export Plug-In . SVG Version: 2.1.0 Build 152)  -->
  <rect x="14.7374" y="13.5879" width="63.7397" height="44.7827" rx="1.4098" ry="1.4098" style="fill: #00aeef;"/>
  <g>
    <rect x="33.2324" y="22.5112" width="6.787" height="15.9979" rx="3.3935" ry="3.3935" style="fill: #262262;"/>
    <rect x="55.8835" y="22.5112" width="6.787" height="15.9979" rx="3.3935" ry="3.3935" style="fill: #262262;"/>
  </g>
  <rect x="6.8003" y="55.9142" width="81.8784" height="24.0424" style="fill: #085d7d;"/>
  <path d="M39.323,45.6945c1.6744.5245,3.9605,1.0344,6.6914,1.0565,4.8104.0389,8.533-1.4559,10.5654-2.4653" style="fill: none; stroke: #231f20; stroke-miterlimit: 10; stroke-width: 1.1732px;"/>
  <path d="M52.1169,37.4473l3.9338,2.4985c.2963.1882.2555.6327-.0702.7638l-4.1565,1.6724c-1.084.4361-2.2627-.3713-2.2476-1.5397l.0264-2.0345c.0166-1.2813,1.4325-2.0474,2.5142-1.3604Z" style="fill: #1d75bc;"/>
  <path d="M31.2573,21.1014c.6375-.5481,2.0153-1.5755,4.0388-1.9316,3.2529-.5725,5.7466,1.0167,6.3216,1.4048" style="fill: none; stroke: #262262; stroke-miterlimit: 10; stroke-width: 1.1732px;"/>
  <path d="M53.6453,21.1014c.6375-.5481,2.0153-1.5755,4.0388-1.9316,3.2529-.5725,5.7466,1.0167,6.3216,1.4048" style="fill: none; stroke: #262262; stroke-miterlimit: 10; stroke-width: 1.1732px;"/>
  <path d="M88.6364,28.9655v51.0396H5.2624c.0425-16.7724.0851-33.5447.1277-50.3171" style="fill: none; stroke: #231f20; stroke-miterlimit: 10; stroke-width: 1.9994px;"/>
  <path d="M14.7745,23.5661c-3.2724,2.3148-6.5448,4.6295-9.8173,6.9442" style="fill: none; stroke: #231f20; stroke-miterlimit: 10; stroke-width: 2px;"/>
  <path d="M64.5687,13.5879c-5.9643-3.9488-11.9286-7.8976-17.8929-11.8463l-17.3749,11.8215" style="fill: #00475e; stroke: #231f20; stroke-miterlimit: 10; stroke-width: 2px;"/>
  <path d="M89.155,29.7964c-3.458-2.3234-6.916-4.6469-10.374-6.9703" style="fill: none; stroke: #231f20; stroke-miterlimit: 10; stroke-width: 2px;"/>
  <line x1="34.0271" y1="55.0855" x2="59.2189" y2="55.0855" style="fill: none; stroke: #231f20; stroke-miterlimit: 10; stroke-width: 2px;"/>
  <path d="M14.7372,39.7409c.004-7.946.008-15.892.012-23.838,0-1.2572.8615-2.2764,1.9241-2.2764h60.594c1.0627,0,1.9241,1.0192,1.9241,2.2764-.1163,7.6285-.2326,15.2571-.349,22.8856" style="fill: none; stroke: #231f20; stroke-miterlimit: 10; stroke-width: 2.03px;"/>
  <path d="M13.7498,25.5117c-2.2665,1.6157-4.533,3.2313-6.7994,4.847,2.2648,1.9483,4.5295,3.8966,6.7943,5.8449.0017-3.564.0034-7.1279.0052-10.6919Z" style="fill: #00475e;"/>
  <path d="M87.8089,79.996l-28.6635-25.6188c9.485-8.4675,18.97-16.9351,28.455-25.4026" style="fill: #085d7d; stroke: #231f20; stroke-miterlimit: 10; stroke-width: 2.0144px;"/>
  <path d="M6.1422,79.5024l27.8112-24.5912c-7.8662-6.9472-15.7324-13.8945-23.5986-20.8418-1.3368-1.1806-2.6736-2.3612-4.0104-3.5419" style="fill: #085d7d; stroke: #231f20; stroke-miterlimit: 10; stroke-width: 1.9441px;"/>
  <path d="M80.0889,24.9353c1.9993,1.3413,3.9986,2.6826,5.9979,4.0239-2.0562,1.8601-4.1125,3.7202-6.1687,5.5803l.1708-9.6042Z" style="fill: #00475e;"/>
  <path d="M25.0041,79.7295h0c.8832,1.6801,2.4646,3.541,5.299,5.2757.2716.1662.5471.3266.8255.4814h0l.7727-.1056c4.9611-3.6194,6.0828-5.4501,6.0829-5.4501v-.0002c-.0009,0-12.9801-.2011-12.9801-.2011Z" style="fill: #231f20;"/>
  <path d="M39.8212,85.3264c-.1276.4144-1.729.3767-4.9319.3013-1.5652-.0369-3.7698-.1523-3.7702-.1523h0s-.9255-1.4139-.9256-1.4141h0c.0024-.0008,2.6476-1.421,4.9149-1.3806,2.5824.046,4.9144,1.9908,4.7127,2.6458Z" style="fill: #231f20;"/>
  <path d="M55.2558,79.7295h0c.8832,1.6801,2.4646,3.541,5.299,5.2757.2716.1662.5471.3266.8255.4814h0l.7727-.1056c4.9611-3.6194,6.0828-5.4501,6.0829-5.4501v-.0002c-.0009,0-12.9801-.2011-12.9801-.2011Z" style="fill: #231f20;"/>
  <path d="M70.0729,85.3569c-.1276.4144-1.729.3767-4.9319.3013-1.5652-.0369-3.7698-.1523-3.7702-.1523h0s-.9255-1.4139-.9256-1.4141h0c.0024-.0008,2.6476-1.421,4.9149-1.3806,2.5824.046,4.9144,1.9908,4.7127,2.6458Z" style="fill: #231f20;"/>
</svg>